<?xml version="1.0" standalone="no"?>
<!DOCTYPE svg PUBLIC "-//W3C//DTD SVG 20010904//EN"
 "http://www.w3.org/TR/2001/REC-SVG-20010904/DTD/svg10.dtd">
<svg version="1.0" xmlns="http://www.w3.org/2000/svg"
 width="512.000000pt" height="512.000000pt" viewBox="0 0 512.000000 512.000000"
 preserveAspectRatio="xMidYMid meet">
<metadata>
Created by potrace 1.11, written by Peter Selinger 2001-2013
</metadata>
<g transform="translate(0.000000,512.000000) scale(0.100000,-0.100000)"
fill="#000000" stroke="none">
<path d="M2465 5044 c-73 -26 -137 -83 -175 -158 -30 -59 -34 -77 -34 -140 1
-151 98 -271 249 -305 185 -42 365 99 372 291 1 37 5 74 9 80 4 7 4 10 -1 6
-4 -4 -18 18 -31 49 -27 67 -77 121 -147 159 -41 22 -66 28 -126 30 -46 1 -92
-4 -116 -12z"/>
<path d="M1405 4712 c-16 -9 -32 -19 -35 -22 -3 -4 -81 -69 -175 -145 -421
-344 -413 -337 -420 -409 -12 -122 121 -211 229 -154 21 11 81 56 126 94 14
12 96 80 183 151 l158 130 127 -28 c70 -16 142 -31 161 -34 19 -3 37 -7 39 -9
2 -2 -23 -44 -55 -93 -32 -48 -62 -96 -68 -105 -5 -9 -95 -149 -199 -310 -155
-239 -269 -403 -306 -438 -3 -3 -21 -25 -40 -50 -19 -25 -77 -98 -128 -163
l-94 -119 -122 6 c-569 27 -580 27 -632 -7 -102 -64 -120 -197 -40 -285 46
-52 82 -59 301 -67 83 -3 206 -8 275 -11 351 -17 391 -13 443 48 16 18 92 114
169 213 78 99 143 182 145 185 2 2 10 0 18 -5 51 -36 171 -120 180 -127 5 -4
82 -58 170 -120 88 -61 162 -113 163 -114 2 -1 -34 -76 -81 -166 -234 -450
-219 -417 -214 -467 9 -84 36 -125 108 -162 66 -33 163 -16 211 38 17 19 173
312 324 609 85 167 92 205 56 288 -17 38 -47 63 -268 221 -137 98 -257 185
-267 194 -16 16 -11 26 95 189 62 94 154 235 205 312 l91 141 58 -103 c85
-152 89 -159 120 -213 21 -36 42 -56 74 -72 42 -21 64 -23 315 -29 458 -11
479 -11 510 -1 127 41 145 216 29 287 -37 23 -38 23 -462 34 -90 2 -164 6
-166 7 -1 2 -60 108 -131 234 -70 127 -147 259 -171 295 -54 83 -156 184 -214
212 -39 19 -191 58 -285 73 -16 3 -39 7 -50 9 -193 42 -371 76 -397 76 -18 0
-46 -8 -63 -18z"/>
<path d="M3608 2945 c-2 -1 -30 -5 -64 -8 -122 -12 -147 -41 -151 -174 -1 -52
-7 -102 -12 -112 -6 -10 -38 -28 -73 -41 -35 -12 -97 -38 -138 -58 -41 -19
-79 -36 -85 -37 -21 -3 -62 25 -114 79 -96 97 -146 89 -288 -50 -118 -116
-146 -154 -145 -202 0 -55 2 -59 70 -125 34 -33 65 -71 68 -84 4 -15 -7 -50
-34 -105 -22 -46 -48 -108 -58 -138 -25 -80 -31 -84 -132 -86 -97 -2 -127 -11
-160 -46 -30 -33 -41 -105 -37 -254 3 -124 13 -161 51 -195 27 -23 48 -28 139
-30 44 -1 89 -8 101 -15 13 -7 32 -43 49 -91 15 -43 40 -104 56 -135 16 -32
29 -67 29 -78 0 -12 -28 -49 -65 -88 -71 -72 -80 -92 -72 -152 5 -41 29 -72
143 -185 145 -143 180 -147 299 -35 41 39 79 70 85 70 6 0 38 -14 72 -31 34
-17 98 -44 142 -60 44 -15 86 -35 93 -42 10 -10 15 -44 16 -110 2 -79 6 -101
23 -124 38 -52 64 -58 239 -58 232 0 257 18 261 182 4 109 11 123 77 143 23 7
86 32 140 57 57 25 107 41 117 38 10 -3 40 -29 66 -57 84 -90 151 -105 223
-51 51 39 200 193 216 223 38 72 24 110 -73 206 -31 30 -52 60 -52 73 0 11 15
51 34 88 19 38 44 97 56 133 29 91 44 100 145 99 130 -2 170 28 184 137 7 60
6 230 -2 274 -16 86 -58 112 -184 114 -87 2 -97 4 -114 25 -11 13 -19 29 -19
35 0 18 -46 132 -75 187 -14 26 -25 56 -25 68 0 12 29 52 70 97 64 68 70 79
70 117 0 25 -9 56 -21 77 -26 43 -186 202 -231 230 -64 39 -117 23 -189 -54
-73 -80 -83 -82 -175 -37 -44 21 -109 48 -147 60 -82 28 -95 47 -91 141 5 119
-32 173 -128 185 -63 7 -176 14 -180 10z m257 -690 l25 -24 0 -226 c0 -207 1
-225 18 -225 9 -1 113 -2 229 -3 276 -3 256 15 257 -216 1 -94 -2 -184 -7
-201 -13 -51 -39 -57 -267 -55 -113 1 -211 0 -217 -3 -10 -3 -13 -58 -13 -227
0 -294 20 -270 -222 -271 -100 -1 -193 2 -205 7 -39 15 -44 40 -46 272 l-2
222 -210 1 c-273 2 -253 -1 -273 33 -15 25 -17 54 -17 210 1 240 -12 225 208
228 89 1 192 2 230 3 l67 0 0 225 0 226 25 24 c24 25 26 25 210 25 184 0 186
0 210 -25z"/>
<path d="M1190 2000 c-61 -4 -115 -13 -128 -21 -26 -16 -41 -59 -38 -109 2
-42 -12 -90 -26 -90 -6 0 -50 -17 -97 -37 -47 -20 -94 -36 -103 -36 -9 1 -33
20 -54 42 -44 49 -87 64 -127 44 -38 -19 -165 -147 -177 -179 -17 -44 -11 -61
40 -116 44 -45 50 -57 45 -83 -3 -16 -9 -31 -14 -35 -5 -3 -21 -40 -36 -83
-31 -85 -28 -84 -131 -90 -76 -4 -93 -19 -103 -90 -8 -66 -7 -164 3 -197 17
-54 44 -70 115 -70 36 0 71 -4 78 -8 16 -10 35 -61 27 -74 -4 -7 -2 -8 4 -4 7
4 12 1 12 -6 0 -7 12 -35 25 -63 14 -27 25 -57 25 -65 0 -8 -21 -36 -46 -62
-77 -79 -71 -110 41 -224 104 -105 141 -111 217 -35 28 28 53 51 56 51 3 0 32
-13 66 -29 34 -15 79 -34 101 -41 22 -7 44 -16 49 -20 4 -5 9 -41 10 -80 2
-62 6 -74 30 -98 26 -26 29 -27 151 -27 122 0 125 1 152 27 23 24 27 36 30 99
1 40 6 76 10 80 5 3 34 16 66 28 32 11 76 30 98 42 46 23 58 19 117 -40 42
-42 71 -52 108 -36 33 13 151 125 180 170 24 37 12 78 -41 133 -25 25 -45 52
-45 59 0 8 11 35 24 61 13 26 29 67 37 92 17 61 31 70 110 70 104 0 122 27
122 185 0 90 -6 120 -32 148 -22 24 -32 27 -90 27 -36 0 -71 4 -77 8 -11 7
-82 170 -91 207 -3 14 11 36 46 72 43 45 49 57 46 87 -4 48 -108 170 -175 206
-24 13 -101 20 -94 8 3 -4 -16 -26 -42 -50 -53 -49 -62 -49 -144 -8 -30 15
-70 31 -88 35 -41 8 -49 26 -46 97 2 49 -1 62 -22 88 -16 18 -35 30 -50 30
-14 0 -22 4 -19 10 3 6 5 9 3 8 -2 0 -50 -4 -108 -8z m166 -530 c73 -25 165
-88 211 -146 116 -148 134 -345 48 -514 -125 -244 -459 -320 -683 -156 -123
91 -187 213 -191 366 -3 134 39 239 134 336 127 129 307 172 481 114z"/>
</g>
</svg>
